<svg width="12" height="12" viewBox="0 0 12 12" fill="none" xmlns="http://www.w3.org/2000/svg">
<path d="M4.875 1.81818H7.125C7.125 1.52885 7.00647 1.25138 6.7955 1.04679C6.58452 0.842208 6.29837 0.727273 6 0.727273C5.70163 0.727273 5.41548 0.842208 5.2045 1.04679C4.99353 1.25138 4.875 1.52885 4.875 1.81818ZM4.125 1.81818C4.125 1.33597 4.32254 0.873508 4.67417 0.532533C5.02581 0.191558 5.50272 0 6 0C6.49728 0 6.97419 0.191558 7.32583 0.532533C7.67746 0.873508 7.875 1.33597 7.875 1.81818H11.625C11.7245 1.81818 11.8198 1.85649 11.8902 1.92469C11.9605 1.99288 12 2.08538 12 2.18182C12 2.27826 11.9605 2.37075 11.8902 2.43895C11.8198 2.50714 11.7245 2.54545 11.625 2.54545H10.8345L9.939 10.0684C9.8757 10.6001 9.613 11.0908 9.2009 11.447C8.78879 11.8031 8.25603 12 7.704 12H4.296C3.74397 12 3.21121 11.8031 2.7991 11.447C2.387 11.0908 2.1243 10.6001 2.061 10.0684L1.1655 2.54545H0.375C0.275544 2.54545 0.180161 2.50714 0.109835 2.43895C0.0395089 2.37075 0 2.27826 0 2.18182C0 2.08538 0.0395089 1.99288 0.109835 1.92469C0.180161 1.85649 0.275544 1.81818 0.375 1.81818H4.125ZM5.25 4.72727C5.25 4.63083 5.21049 4.53834 5.14017 4.47014C5.06984 4.40195 4.97446 4.36364 4.875 4.36364C4.77554 4.36364 4.68016 4.40195 4.60983 4.47014C4.53951 4.53834 4.5 4.63083 4.5 4.72727V9.09091C4.5 9.18735 4.53951 9.27984 4.60983 9.34804C4.68016 9.41623 4.77554 9.45455 4.875 9.45455C4.97446 9.45455 5.06984 9.41623 5.14017 9.34804C5.21049 9.27984 5.25 9.18735 5.25 9.09091V4.72727ZM7.125 4.36364C7.02554 4.36364 6.93016 4.40195 6.85983 4.47014C6.78951 4.53834 6.75 4.63083 6.75 4.72727V9.09091C6.75 9.18735 6.78951 9.27984 6.85983 9.34804C6.93016 9.41623 7.02554 9.45455 7.125 9.45455C7.22446 9.45455 7.31984 9.41623 7.39017 9.34804C7.46049 9.27984 7.5 9.18735 7.5 9.09091V4.72727C7.5 4.63083 7.46049 4.53834 7.39017 4.47014C7.31984 4.40195 7.22446 4.36364 7.125 4.36364Z" fill="#716DF0"/>
</svg>
